<?xml version="1.0" encoding="utf-8"?>
<!-- Generator: Adobe Illustrator 19.0.0, SVG Export Plug-In . SVG Version: 6.00 Build 0)  -->
<svg version="1.1" id="Layer_1" xmlns="http://www.w3.org/2000/svg" xmlns:xlink="http://www.w3.org/1999/xlink" x="0px" y="0px"
	 viewBox="-9 11 80 80" style="enable-background:new -9 11 80 80;" xml:space="preserve">
<style type="text/css">
	.st0{fill:none;stroke:#000000;stroke-miterlimit:10;}
</style>
<path id="facebook" d="M27.6,31.6c1.7-1.6,4.1-2.1,6.3-2.2c2.4,0,4.8,0,7.2,0c0,2.5,0,5,0,7.6c-1.5,0-3.1,0-4.6,0
	c-1-0.1-2,0.7-2.2,1.7c0,1.7,0,3.4,0,5.1c2.3,0,4.5,0,6.8,0c-0.2,2.4-0.5,4.9-0.8,7.3c-2,0-4,0-6,0c0,7.2,0,14.4,0,21.6
	c-3,0-5.9,0-8.9,0c-0.1-7.2,0-14.4,0-21.6c-1.4,0-2.9,0-4.3,0c0-2.4,0-4.8,0-7.3c1.4,0,2.9,0,4.3,0c0-2.4,0-4.7,0-7.1
	C25.5,34.8,26.2,32.9,27.6,31.6z"/>
<circle id="facebookCircle" class="st0" cx="31" cy="51" r="34.9"/>
</svg>
