<?xml version="1.0" encoding="utf-8"?>
<!-- Generator: Adobe Illustrator 19.0.0, SVG Export Plug-In . SVG Version: 6.00 Build 0)  -->
<svg version="1.1" id="google" xmlns="http://www.w3.org/2000/svg" xmlns:xlink="http://www.w3.org/1999/xlink" x="0px" y="0px"
	 viewBox="-9 11 80 80" style="enable-background:new -9 11 80 80;" xml:space="preserve">
<style type="text/css">
	.st0{fill:none;stroke:#000000;stroke-miterlimit:10;}
</style>
<circle id="googleCircle" class="st0" cx="31" cy="51" r="34.9"/>
<path id="g" d="M48.6,49.9H31.1V55h12.4c-0.6,7.3-6.7,10.4-12.4,10.4c-7.3,0-13.7-5.7-13.7-13.8c0-7.8,6.1-13.9,13.7-13.9
	c5.9,0,9.3,3.7,9.3,3.7l3.6-3.8c0,0-4.7-5.2-13.1-5.2c-10.8,0-19.2,9.1-19.2,19c0,9.7,7.9,19.1,19.5,19.1c10.2,0,17.6-7,17.6-17.3
	C48.9,51.1,48.6,49.9,48.6,49.9L48.6,49.9z"/>
</svg>
