<?xml version="1.0" encoding="utf-8"?>
<!-- Generator: Adobe Illustrator 19.0.0, SVG Export Plug-In . SVG Version: 6.00 Build 0)  -->
<svg version="1.1"
	 id="linkedin" inkscape:output_extension="org.inkscape.output.svg.inkscape" sodipodi:docname="linkedin.svg" sodipodi:version="0.32" inkscape:version="0.47 r22583" xmlns:inkscape="http://www.inkscape.org/namespaces/inkscape" xmlns:rdf="http://www.w3.org/1999/02/22-rdf-syntax-ns#" xmlns:svg="http://www.w3.org/2000/svg" xmlns:sodipodi="http://sodipodi.sourceforge.net/DTD/sodipodi-0.dtd" xmlns:cc="http://creativecommons.org/ns#" xmlns:dc="http://purl.org/dc/elements/1.1/"
	 xmlns="http://www.w3.org/2000/svg" xmlns:xlink="http://www.w3.org/1999/xlink" x="0px" y="0px" viewBox="166 10 80 80"
	 style="enable-background:new 166 10 80 80;" xml:space="preserve">
<style type="text/css">
	.st0{fill:none;stroke:#000000;stroke-miterlimit:10;}
</style>
<circle id="circle" class="st0" cx="206" cy="49" r="34.9"/>
<g>
	<path id="path28_1_" inkscape:connector-curvature="0" d="M193.6,70.5V41.8H184v28.7H193.6z M188.8,37.8c3.3,0,5.4-2.2,5.4-5
		c-0.1-2.8-2.1-5-5.3-5c-3.3,0-5.4,2.1-5.4,5C183.5,35.6,185.5,37.8,188.8,37.8L188.8,37.8L188.8,37.8z"/>
	<path id="path30_1_" inkscape:connector-curvature="0" d="M198.9,70.5h9.6V54.4c0-0.9,0.1-1.7,0.3-2.3c0.7-1.7,2.3-3.5,4.9-3.5
		c3.5,0,4.8,2.6,4.8,6.5v15.4h9.6V54c0-8.8-4.7-12.9-11-12.9c-5.2,0-7.4,2.9-8.7,4.8h0.1v-4.2h-9.6C199,44.5,198.9,70.5,198.9,70.5
		L198.9,70.5z"/>
</g>
</svg>
