<?xml version="1.0" encoding="utf-8"?>
<!-- Generator: Adobe Illustrator 17.0.0, SVG Export Plug-In . SVG Version: 6.00 Build 0)  -->
<!DOCTYPE svg PUBLIC "-//W3C//DTD SVG 1.1//EN" "http://www.w3.org/Graphics/SVG/1.1/DTD/svg11.dtd">
<svg version="1.1" xmlns="http://www.w3.org/2000/svg" xmlns:xlink="http://www.w3.org/1999/xlink" x="0px" y="0px" width="80px"
	 height="80px" viewBox="0 0 80 80" enable-background="new 0 0 80 80" xml:space="preserve">
<g id="Layer_1">
	<circle id="pinterestCircle" fill="none" cx="40" cy="40" r="34.917"/>
</g>
<g id="svg2">
	<g id="layer1_1_" transform="translate(-200.55198,-393.96227)" inkscape:groupmode="layer" inkscape:label="Layer 1">
		<g id="g3019" transform="matrix(1.018827,0,0,-1.018827,170.5996,498.03288)">
			<path id="path28_1_" inkscape:connector-curvature="0" fill="none" d="M60.631,46.834v20.325h-6.755V46.834H60.631z
				 M57.255,69.934c2.354,0,3.822,1.561,3.822,3.511c-0.044,1.994-1.467,3.512-3.777,3.512c-2.312,0-3.822-1.518-3.822-3.512
				c0-1.951,1.466-3.511,3.733-3.511H57.255L57.255,69.934z"/>
			<path id="path30_1_" inkscape:connector-curvature="0" fill="none" d="M64.369,46.834h6.756v11.35
				c0,0.608,0.044,1.215,0.223,1.649c0.487,1.214,1.6,2.471,3.465,2.471c2.445,0,3.422-1.864,3.422-4.596V46.834h6.755v11.654
				c0,6.243-3.332,9.148-7.777,9.148c-3.644,0-5.245-2.036-6.133-3.424h0.046v2.947h-6.756
				C64.459,65.252,64.369,46.834,64.369,46.834L64.369,46.834z"/>
		</g>
	</g>
</g>
</svg>
