<?xml version="1.0" encoding="utf-8"?>
<!-- Generator: Adobe Illustrator 17.0.0, SVG Export Plug-In . SVG Version: 6.00 Build 0)  -->
<!DOCTYPE svg PUBLIC "-//W3C//DTD SVG 1.1//EN" "http://www.w3.org/Graphics/SVG/1.1/DTD/svg11.dtd">
<svg version="1.1" xmlns="http://www.w3.org/2000/svg" xmlns:xlink="http://www.w3.org/1999/xlink" x="0px" y="0px" width="50px"
	 height="50px" viewBox="0 0 50 50" enable-background="new 0 0 50 50" xml:space="preserve">
<g id="vectorIllustrator">
	<g id="orig" display="none">
		<path display="inline" fill="#FFFFFF" stroke="#000000" stroke-miterlimit="10" d="M10.417,33.236
			c0-8.054,6.529-14.583,14.583-14.583s14.583,6.529,14.583,14.583"/>
		<circle display="inline" fill="#FFFFFF" stroke="#000000" stroke-miterlimit="10" cx="39.583" cy="33.075" r="2.917"/>
		<circle display="inline" fill="#FFFFFF" stroke="#000000" stroke-miterlimit="10" cx="10.417" cy="33.075" r="2.917"/>
		<line display="inline" fill="none" stroke="#000000" stroke-miterlimit="10" x1="13.333" y1="18.653" x2="36.667" y2="18.653"/>
		<circle display="inline" fill="#FFFFFF" stroke="#000000" stroke-miterlimit="10" cx="39.583" cy="18.675" r="2.917"/>
		<circle display="inline" fill="#FFFFFF" stroke="#000000" stroke-miterlimit="10" cx="10.417" cy="18.675" r="2.917"/>
		
			<rect x="22.338" y="15.99" display="inline" fill="#FFFFFF" stroke="#000000" stroke-miterlimit="10" width="5.324" height="5.324"/>
	</g>
	<g id="svg">
		<circle fill="none" stroke="#000000" stroke-miterlimit="10" cx="39.583" cy="33.144" r="2.917"/>
		<circle fill="none" stroke="#000000" stroke-miterlimit="10" cx="10.417" cy="33.144" r="2.917"/>
		<line fill="none" stroke="#000000" stroke-miterlimit="10" x1="13.333" y1="18.722" x2="22.338" y2="18.722"/>
		<line fill="none" stroke="#000000" stroke-miterlimit="10" x1="27.662" y1="18.722" x2="36.667" y2="18.722"/>
		<circle fill="none" stroke="#000000" stroke-miterlimit="10" cx="39.583" cy="18.744" r="2.917"/>
		<circle fill="none" stroke="#000000" stroke-miterlimit="10" cx="10.417" cy="18.744" r="2.917"/>
		<rect x="22.338" y="16.06" fill="none" stroke="#000000" stroke-miterlimit="10" width="5.324" height="5.324"/>
		<path fill="none" stroke="#000000" stroke-miterlimit="10" d="M39.252,30.261c-1.221-5.732-5.801-10.216-11.59-11.285"/>
		<path fill="none" stroke="#000000" stroke-miterlimit="10" d="M10.748,30.261c1.221-5.732,5.801-10.216,11.59-11.285"/>
	</g>
</g>
<g id="Layer_2">
	<g>
		<path fill="#FFFFFF" d="M49,1v48H1V1H49 M50,0H0v50h50V0L50,0z"/>
	</g>
</g>
</svg>
