<?xml version="1.0" encoding="utf-8"?>
<!-- Generator: Adobe Illustrator 19.0.0, SVG Export Plug-In . SVG Version: 6.00 Build 0)  -->
<svg version="1.1" id="Layer_1" xmlns="http://www.w3.org/2000/svg" xmlns:xlink="http://www.w3.org/1999/xlink" x="0px" y="0px"
	 viewBox="0 0 100 100" style="enable-background:new 0 0 100 100;" xml:space="preserve">
<g id="XMLID_1_">
	<path id="XMLID_3_" d="M42.5,20c0.7,0,1.4,0.4,2,1.3c0.6,0.9,0.9,1.7,1,2.5c0,0.7-0.2,1.2-0.7,1.6c-5.3,3.9-9.1,7.3-11.3,10.2
		c-2.3,2.9-3.4,6.3-3.4,10c0,2.2,0.6,4,1.8,5.3c1.2,1.3,3.2,2.5,6,3.6c5.1,2.1,7.7,6.2,7.7,12.3c0,3.9-1.3,7.2-3.9,9.9
		c-2.6,2.7-6.4,4-11.3,4c-5.5,0-9.8-2-13.1-6c-3.3-4-4.9-9-4.9-15c0-6.9,1.7-13.3,5.1-19.3c3.4-5.9,8.1-10.8,13.9-14.7
		C37.1,21.9,40.8,20,42.5,20z M83.9,20c0.7,0,1.4,0.4,2,1.3c0.6,0.9,0.9,1.7,1,2.5c0,0.7-0.2,1.2-0.7,1.6
		c-5.3,3.9-9.1,7.3-11.3,10.2c-2.3,2.9-3.4,6.3-3.4,10c0,2.2,0.6,4,1.8,5.3c1.2,1.3,3.2,2.5,6,3.6c5.1,2.1,7.7,6.2,7.7,12.3
		c0,3.9-1.3,7.2-3.9,9.9c-2.6,2.7-6.4,4-11.3,4c-5.5,0-9.8-2-13.1-6c-3.3-4-4.9-9-4.9-15c0-6.9,1.7-13.3,5.1-19.3
		c3.4-5.9,8.1-10.8,13.9-14.7C78.6,21.9,82.3,20,83.9,20z"/>
</g>
</svg>
