<?xml version="1.0" encoding="utf-8"?>
<!-- Generator: Adobe Illustrator 17.0.0, SVG Export Plug-In . SVG Version: 6.00 Build 0)  -->
<!DOCTYPE svg PUBLIC "-//W3C//DTD SVG 1.1//EN" "http://www.w3.org/Graphics/SVG/1.1/DTD/svg11.dtd">
<svg version="1.1" xmlns="http://www.w3.org/2000/svg" xmlns:xlink="http://www.w3.org/1999/xlink" x="0px" y="0px" width="75px"
	 height="75px" viewBox="-6.292 13.5 75 75" enable-background="new -6.292 13.5 75 75" xml:space="preserve">
<g id="socialIcon">
	<circle id="circle" fill="#D33C27" cx="31" cy="51" r="35"/>
	<path id="facebook" fill="#020201" d="M27.567,31.65c1.682-1.602,4.076-2.143,6.333-2.211c2.388-0.021,4.774-0.008,7.162-0.008
		c0.009,2.519,0.01,5.038-0.001,7.557c-1.543-0.003-3.087,0.004-4.63-0.003c-0.978-0.061-1.983,0.681-2.161,1.651
		c-0.023,1.685-0.008,3.372-0.008,5.057c2.263,0.009,4.526-0.003,6.789,0.006c-0.166,2.438-0.468,4.865-0.823,7.282
		c-1.999,0.019-3.999-0.002-5.998,0.01c-0.018,7.191,0.009,14.381-0.014,21.572c-2.969,0.012-5.94-0.006-8.909,0.008
		c-0.056-7.192,0.005-14.387-0.031-21.579c-1.449-0.015-2.898,0.01-4.346-0.012c0.006-2.417,0.002-4.835,0.003-7.252
		c1.447-0.018,2.896,0.004,4.344-0.01c0.044-2.35-0.044-4.703,0.046-7.051C25.468,34.808,26.177,32.935,27.567,31.65z"/>
	<path id="thumblr" d="M16.812,47.146v-6.08c1.713-0.571,3.154-1.356,4.325-2.355c1.17-0.942,2.127-2.17,2.869-3.682
		c0.742-1.456,1.242-3.269,1.499-5.438h6.123v10.833h10.148v6.723H31.627v10.962c0,2.455,0.128,4.054,0.385,4.796
		c0.257,0.685,0.742,1.242,1.456,1.67c0.971,0.571,2.055,0.856,3.254,0.856c2.198,0,4.353-0.699,6.466-2.098v6.723
		c-1.798,0.885-3.454,1.499-4.967,1.841c-1.484,0.343-3.083,0.514-4.796,0.514c-1.941,0-3.682-0.243-5.224-0.728
		c-1.57-0.542-2.84-1.256-3.811-2.141c-1.028-0.885-1.77-1.856-2.227-2.912c-0.4-0.971-0.599-2.469-0.599-4.496V47.146H16.812z"/>
	<path id="pinterest" d="M14.315,44.917c0-1.811,0.381-3.607,1.143-5.389s1.854-3.435,3.277-4.958s3.291-2.759,5.605-3.708
		s4.879-1.423,7.696-1.423c4.57,0,8.321,1.408,11.253,4.225c2.932,2.817,4.398,6.137,4.398,9.96c0,4.915-1.243,8.975-3.729,12.18
		s-5.698,4.807-9.636,4.807c-1.293,0-2.508-0.302-3.643-0.905s-1.933-1.337-2.393-2.199l-1.725,6.812
		c-0.144,0.546-0.331,1.099-0.56,1.66c-0.23,0.56-0.481,1.099-0.755,1.617c-0.273,0.517-0.546,1.006-0.819,1.466
		c-0.273,0.46-0.546,0.891-0.819,1.293c-0.273,0.402-0.51,0.74-0.711,1.013c-0.201,0.273-0.388,0.51-0.56,0.711l-0.259,0.345
		c-0.086,0.115-0.201,0.158-0.345,0.129s-0.23-0.115-0.259-0.259c0-0.029-0.022-0.23-0.065-0.604
		c-0.043-0.374-0.086-0.769-0.129-1.186c-0.043-0.417-0.086-0.956-0.129-1.617s-0.057-1.301-0.043-1.919s0.057-1.301,0.129-2.048
		c0.072-0.747,0.18-1.437,0.323-2.07c0.316-1.351,1.38-5.849,3.19-13.495c-0.23-0.46-0.417-1.013-0.56-1.66
		c-0.144-0.647-0.216-1.171-0.216-1.574l-0.043-0.647c0-1.84,0.467-3.37,1.401-4.592c0.934-1.222,2.062-1.832,3.385-1.832
		c1.063,0,1.89,0.352,2.479,1.056s0.884,1.588,0.884,2.652c0,0.661-0.122,1.473-0.366,2.436s-0.568,2.07-0.97,3.32
		s-0.69,2.264-0.862,3.04c-0.287,1.293-0.036,2.414,0.755,3.363c0.79,0.949,1.847,1.423,3.169,1.423
		c2.271,0,4.146-1.286,5.626-3.859c1.48-2.573,2.22-5.684,2.22-9.334c0-2.788-0.905-5.066-2.716-6.834s-4.34-2.652-7.588-2.652
		c-3.622,0-6.561,1.164-8.817,3.492s-3.385,5.116-3.385,8.364c0,1.926,0.546,3.55,1.638,4.872c0.374,0.431,0.489,0.891,0.345,1.38
		c-0.057,0.144-0.144,0.474-0.259,0.992s-0.201,0.848-0.259,0.992c-0.057,0.316-0.201,0.525-0.431,0.625
		c-0.23,0.101-0.489,0.093-0.776-0.022c-1.696-0.69-2.968-1.875-3.816-3.557C14.739,49.12,14.315,47.158,14.315,44.917z"/>
	<path id="instagram" d="M47.627,65.835V47.697h-3.779c0.373,1.176,0.56,2.398,0.56,3.667c0,2.351-0.597,4.521-1.791,6.508
		s-2.818,3.56-4.87,4.717s-4.292,1.735-6.718,1.735c-3.676,0-6.821-1.264-9.433-3.793c-2.613-2.529-3.919-5.584-3.919-9.167
		c0-1.269,0.187-2.491,0.56-3.667H14.29v18.138c0,0.485,0.163,0.891,0.49,1.218c0.327,0.327,0.732,0.49,1.218,0.49h29.923
		c0.467,0,0.868-0.163,1.204-0.49C47.459,66.726,47.627,66.321,47.627,65.835L47.627,65.835z M39.677,50.916
		c0-2.314-0.844-4.287-2.533-5.92s-3.728-2.449-6.116-2.449c-2.37,0-4.399,0.816-6.088,2.449c-1.689,1.633-2.533,3.606-2.533,5.92
		s0.844,4.287,2.533,5.92s3.718,2.449,6.088,2.449c2.389,0,4.427-0.816,6.116-2.449C38.833,55.203,39.677,53.23,39.677,50.916
		L39.677,50.916z M47.627,40.839V36.22c0-0.523-0.187-0.975-0.56-1.358s-0.83-0.574-1.372-0.574h-4.87
		c-0.541,0-0.998,0.191-1.372,0.574s-0.56,0.835-0.56,1.358v4.619c0,0.541,0.187,0.998,0.56,1.372s0.83,0.56,1.372,0.56h4.87
		c0.541,0,0.998-0.187,1.372-0.56C47.44,41.837,47.627,41.38,47.627,40.839z M52.497,35.017v31.966c0,1.512-0.541,2.808-1.624,3.891
		c-1.082,1.082-2.379,1.624-3.891,1.624H15.017c-1.512,0-2.808-0.541-3.891-1.624c-1.082-1.082-1.624-2.379-1.624-3.891V35.017
		c0-1.512,0.541-2.808,1.624-3.891c1.082-1.082,2.379-1.624,3.891-1.624h31.966c1.512,0,2.808,0.541,3.891,1.624
		C51.956,32.208,52.497,33.505,52.497,35.017L52.497,35.017z"/>
	<path id="twitter" d="M52.547,37.635c-1.585,0.703-3.29,1.178-5.078,1.392c1.825-1.094,3.227-2.827,3.887-4.891
		c-1.708,1.013-3.601,1.749-5.615,2.145c-1.613-1.718-3.91-2.792-6.453-2.792c-4.883,0-8.841,3.958-8.841,8.841
		c0,0.693,0.078,1.368,0.229,2.015c-7.348-0.369-13.862-3.889-18.223-9.238c-0.761,1.306-1.197,2.824-1.197,4.445
		c0,3.067,1.561,5.774,3.933,7.359c-1.449-0.046-2.813-0.444-4.005-1.106c-0.001,0.037-0.001,0.074-0.001,0.111
		c0,4.284,3.048,7.857,7.092,8.669c-0.742,0.202-1.523,0.31-2.329,0.31c-0.57,0-1.123-0.056-1.663-0.159
		c1.125,3.512,4.39,6.069,8.259,6.14c-3.026,2.371-6.838,3.785-10.98,3.785c-0.714,0-1.417-0.042-2.109-0.124
		c3.913,2.509,8.56,3.973,13.553,3.973c16.262,0,25.155-13.472,25.155-25.156c0-0.383-0.009-0.764-0.026-1.144
		C49.863,40.965,51.362,39.408,52.547,37.635L52.547,37.635z"/>
	<path id="google" d="M51.541,49.264h-19.6v5.712h13.888c-0.672,8.176-7.504,11.648-13.888,11.648
		c-8.176,0-15.344-6.384-15.344-15.456c0-8.736,6.832-15.568,15.344-15.568c6.608,0,10.416,4.144,10.416,4.144l4.032-4.256
		c0,0-5.264-5.824-14.672-5.824c-12.096,0-21.504,10.192-21.504,21.28c0,10.864,8.848,21.392,21.84,21.392
		c11.424,0,19.712-7.84,19.712-19.376C51.877,50.608,51.541,49.264,51.541,49.264L51.541,49.264z"/>
	<g id="linkedIn">
		<path id="linkedIn_x5F_3" d="M9.511,72.411V38.586h8.95v33.825H9.511z"/>
		<path id="linkedIn_x5F_2" d="M52.497,72.411h-8.95V55.148c0-3.652-0.191-6.014-0.573-7.087c-0.382-1.072-1.003-1.906-1.863-2.5
			c-0.86-0.595-1.895-0.892-3.105-0.892c-1.55,0-2.941,0.425-4.172,1.274c-1.232,0.849-2.076,1.975-2.532,3.376
			s-0.685,3.992-0.685,7.771v15.32h-8.95V38.586h8.313v4.969c2.951-3.822,6.667-5.733,11.147-5.733c1.975,0,3.78,0.356,5.414,1.067
			c1.635,0.711,2.872,1.619,3.711,2.723c0.839,1.104,1.423,2.357,1.752,3.758c0.329,1.401,0.494,3.408,0.494,6.02V72.411z"/>
		<circle id="linkedIn_x5F_1_1_" cx="13.799" cy="31.058" r="5.189"/>
	</g>
	<g id="behance">
		<path id="bahance_x5F_3" fill="#1769FF" d="M21.965,36.457c1.422,0,2.719,0.125,3.891,0.377c1.171,0.251,2.176,0.663,3.012,1.234
			c0.837,0.572,1.485,1.332,1.945,2.28c0.46,0.948,0.69,2.12,0.69,3.514c0,1.506-0.342,2.761-1.025,3.765
			c-0.684,1.004-1.694,1.827-3.033,2.468c1.841,0.53,3.214,1.458,4.121,2.782c0.906,1.325,1.36,2.922,1.36,4.79
			c0,1.506-0.293,2.81-0.879,3.912c-0.585,1.102-1.374,2.001-2.363,2.698c-0.99,0.698-2.12,1.213-3.389,1.549
			c-1.27,0.334-2.573,0.502-3.912,0.502H7.908V36.457H21.965z M21.129,48.549c1.171,0,2.133-0.279,2.887-0.837
			c0.753-0.558,1.129-1.464,1.129-2.719c0-0.697-0.125-1.269-0.376-1.715c-0.251-0.446-0.586-0.795-1.004-1.046
			c-0.418-0.251-0.9-0.425-1.443-0.523c-0.544-0.097-1.109-0.146-1.694-0.146h-6.15v6.987L21.129,48.549L21.129,48.549z
			 M21.505,61.225c0.641,0,1.255-0.063,1.841-0.188c0.586-0.126,1.101-0.335,1.548-0.628c0.446-0.292,0.801-0.69,1.067-1.192
			c0.265-0.502,0.397-1.143,0.397-1.925c0-1.533-0.433-2.628-1.297-3.284c-0.865-0.655-2.008-0.983-3.431-0.983h-7.154v8.2
			L21.505,61.225L21.505,61.225z"/>
		<path id="bahance_x5F_2" fill="#1769FF" d="M41.193,60.597c0.892,0.865,2.176,1.297,3.849,1.297c1.199,0,2.231-0.299,3.096-0.899
			c0.865-0.599,1.395-1.234,1.59-1.904h5.229c-0.836,2.594-2.12,4.449-3.849,5.564c-1.73,1.116-3.822,1.673-6.276,1.673
			c-1.701,0-3.236-0.272-4.602-0.816c-1.367-0.544-2.525-1.318-3.472-2.322c-0.948-1.004-1.681-2.202-2.197-3.598
			c-0.516-1.394-0.774-2.929-0.774-4.602c0-1.617,0.264-3.123,0.795-4.518c0.529-1.394,1.282-2.601,2.259-3.619
			c0.976-1.018,2.14-1.82,3.493-2.405c1.352-0.586,2.852-0.878,4.497-0.878c1.841,0,3.444,0.356,4.812,1.067
			c1.366,0.711,2.489,1.667,3.368,2.866c0.878,1.199,1.512,2.566,1.904,4.1c0.39,1.534,0.529,3.138,0.418,4.811H39.729
			C39.812,58.338,40.3,59.733,41.193,60.597z M47.908,49.218c-0.711-0.781-1.792-1.171-3.242-1.171
			c-0.948,0-1.736,0.161-2.364,0.481c-0.628,0.321-1.13,0.718-1.507,1.192c-0.376,0.474-0.642,0.977-0.795,1.506
			c-0.154,0.53-0.244,1.004-0.272,1.422h9.664C49.114,51.142,48.619,49.999,47.908,49.218z"/>
		<rect id="bahance_x5F_1" x="38.714" y="37.974" fill="#1769FF" width="12.075" height="3.348"/>
	</g>
	<path id="dribbble_x5F_1" d="M8.046,51.5c0-4.291,1.057-8.25,3.171-11.879c2.114-3.628,4.985-6.499,8.613-8.613
		s7.588-3.171,11.879-3.171s8.25,1.057,11.879,3.171c3.628,2.114,6.499,4.985,8.613,8.613c2.114,3.628,3.171,7.588,3.171,11.879
		s-1.057,8.25-3.171,11.879c-2.114,3.628-4.985,6.499-8.613,8.613c-3.628,2.114-7.588,3.171-11.879,3.171s-8.25-1.057-11.879-3.171
		s-6.499-4.985-8.613-8.613C9.103,59.75,8.046,55.791,8.046,51.5z M11.974,51.5c0,4.922,1.656,9.26,4.969,13.014
		c1.514-2.966,3.912-5.789,7.193-8.471s6.484-4.37,9.607-5.064c-0.473-1.104-0.931-2.098-1.372-2.981
		c-5.427,1.735-11.295,2.603-17.605,2.603c-1.23,0-2.145-0.016-2.745-0.047c0,0.126-0.008,0.284-0.024,0.473
		C11.982,51.216,11.974,51.374,11.974,51.5z M12.589,46.626c0.694,0.063,1.719,0.095,3.076,0.095c5.269,0,10.27-0.71,15.002-2.13
		c-2.398-4.259-5.032-7.809-7.903-10.648c-2.492,1.262-4.63,3.013-6.413,5.253C14.569,41.436,13.315,43.912,12.589,46.626z
		 M19.641,67.07c3.565,2.776,7.588,4.165,12.068,4.165c2.335,0,4.654-0.442,6.957-1.325c-0.631-5.395-1.861-10.617-3.691-15.665
		c-2.903,0.631-5.829,2.224-8.779,4.78S21.06,64.262,19.641,67.07z M26.881,32.428c2.776,2.871,5.348,6.452,7.714,10.743
		c4.291-1.798,7.525-4.086,9.702-6.862c-3.66-3.029-7.856-4.543-12.588-4.543C30.099,31.765,28.49,31.986,26.881,32.428z
		 M36.299,46.531c0.473,1.01,1.01,2.287,1.609,3.833c2.335-0.221,4.874-0.331,7.619-0.331c1.956,0,3.896,0.047,5.821,0.142
		c-0.252-4.291-1.798-8.108-4.638-11.453C44.66,41.783,41.189,44.385,36.299,46.531z M39.091,53.677
		c1.609,4.669,2.698,9.465,3.265,14.387c2.492-1.609,4.527-3.676,6.105-6.2c1.578-2.524,2.524-5.253,2.84-8.187
		c-2.303-0.158-4.401-0.237-6.294-0.237C43.272,53.44,41.3,53.519,39.091,53.677z"/>
	<g id="slideshare">
		<path id="slideshare_x5F_3" d="M25.711,41.835c-2.918,0-5.349,2.269-5.349,5.025s2.431,5.025,5.349,5.025s5.349-2.269,5.349-5.025
			C31.061,44.104,28.791,41.835,25.711,41.835z"/>
		<path id="slideshare_x5F_2" d="M38.193,41.835c-2.918,0-5.349,2.269-5.349,5.025s2.431,5.025,5.349,5.025s5.349-2.269,5.349-5.025
			S41.11,41.835,38.193,41.835z"/>
		<path id="slideshare_x5F_1" d="M51.807,49.778c-0.163,0.115-0.324,0.223-0.486,0.332V32.92c0-2.431-1.783-4.376-4.052-4.376
			H16.147c-2.269,0-4.052,1.945-4.052,4.376v17.19c-0.162-0.109-0.323-0.217-0.486-0.332c-1.297-0.973-2.269,0.324-1.459,1.459
			c1.621,1.945,4.539,4.376,9.239,6.159C14.527,73.929,31.222,76.685,31.06,68.094c0-0.164,0-4.94,0-8.332
			c0.055,0.031,0.109,0.053,0.162,0.065c0.421,0.105,0.789,0.21,1.135,0.304c0,3.358,0,7.804,0,7.962
			c-0.162,8.591,16.533,5.835,11.671-10.698c4.701-1.783,7.618-4.214,9.239-6.159C54.076,50.102,53.104,48.805,51.807,49.778z
			 M35.275,53.992c-2.091-0.149-2.805,0.665-2.905,2.061c-0.479-0.355-0.97-0.774-1.472-1.251c-0.598-0.541-1.02-0.746-1.303-0.716
			c-0.387-0.102-0.865-0.136-1.453-0.094c-2.79,0.14-7.743,0.636-13.616-2.432V34.865c0-3.08,0.81-3.89,3.566-3.89h27.557
			c2.593,0,3.566,1.135,3.566,3.89V51.39C43.2,54.649,38.117,54.134,35.275,53.992z"/>
	</g>
	<polygon id="google_x5F_2" fill="#FFFFFF" points="52.875,51.362 48.183,51.362 48.183,46.671 44.267,46.671 44.267,51.362 
		39.576,51.362 39.576,55.278 44.267,55.278 44.267,59.97 48.183,59.97 48.183,55.278 52.875,55.278 	"/>
	<path id="google_x5F_1" fill="#FFFFFF" d="M21.937,57.175h7.959c-0.433,1.086-1.09,2.08-1.946,2.925
		c-1.612,1.59-3.748,2.466-6.013,2.466c-4.723,0-8.566-3.842-8.566-8.566c0-4.723,3.843-8.566,8.566-8.566
		c2.288,0,4.439,0.891,6.057,2.509l4.24-4.24c-2.75-2.75-6.407-4.265-10.297-4.265c-8.029,0-14.562,6.532-14.562,14.562
		c0,8.029,6.532,14.562,14.562,14.562c3.851,0,7.481-1.489,10.223-4.192c2.738-2.7,4.278-6.304,4.336-10.147l0.046-3.043H21.937
		V57.175z"/>
</g>
<g id="Layer_1">
</g>
</svg>
