<?xml version="1.0" encoding="utf-8"?>
<!-- Generator: Adobe Illustrator 19.0.0, SVG Export Plug-In . SVG Version: 6.00 Build 0)  -->
<svg version="1.1" id="Layer_1" xmlns="http://www.w3.org/2000/svg" xmlns:xlink="http://www.w3.org/1999/xlink" x="0px" y="0px"
	 viewBox="0 0 80 80" style="enable-background:new 0 0 80 80;" xml:space="preserve">
<style type="text/css">
	.st0{fill:#FF0000;}
	.st1{fill:#FFFFFF;}
</style>
<circle id="circle" class="st0" cx="40.3" cy="40.5" r="35"/>
<path id="google" class="st1" d="M60.8,38.8H41.2v5.7h13.9c-0.7,8.2-7.5,11.6-13.9,11.6c-8.2,0-15.3-6.4-15.3-15.5
	c0-8.7,6.8-15.6,15.3-15.6c6.6,0,10.4,4.1,10.4,4.1l4-4.3c0,0-5.3-5.8-14.7-5.8c-12.1,0-21.5,10.2-21.5,21.3
	c0,10.9,8.8,21.4,21.8,21.4c11.4,0,19.7-7.8,19.7-19.4C61.2,40.1,60.8,38.8,60.8,38.8L60.8,38.8z"/>
</svg>
