<svg viewBox="0 0 105 70" class="hand-quote">
<path id="right" fill="none" stroke="#ffffff"  stroke-width="1" d="M84.528,30.338V5.433c0-1.933-1.567-3.5-3.5-3.5
    s-3.5,1.567-3.5,3.5v26.905c0,0.827-0.673,1.5-1.5,1.5s-1.5-0.673-1.5-1.5c0-0.096-0.021-0.187-0.028-0.281V12.567
    c0-1.933-1.567-3.5-3.5-3.5s-3.5,1.567-3.5,3.5v22.519c-3.16-2.515-7.157-4.019-11.5-4.019c-1.933,0-3.5,1.567-3.5,3.5
    s1.567,3.5,3.5,3.5c6.341,0,11.5,5.159,11.5,11.5c0,0.193,0.027,0.38,0.057,0.565c0.302,9.939,8.461,17.935,18.471,17.935
    c10.201,0,18.5-8.299,18.5-18.5v-30c0-1.933-1.567-3.5-3.5-3.5s-3.5,1.567-3.5,3.5v13.771c0,0.827-0.673,1.5-1.5,1.5
    s-1.5-0.673-1.5-1.5V8.433c0-1.933-1.567-3.5-3.5-3.5s-3.5,1.567-3.5,3.5v21.905c0,0.827-0.673,1.5-1.5,1.5
    S84.528,31.166,84.528,30.338z"/>
<path id="left" fill="none" stroke="#ffffff"  stroke-width="1" d="M20.472,30.338V5.433c0-1.933,1.567-3.5,3.5-3.5
    s3.5,1.567,3.5,3.5v26.905c0,0.827,0.673,1.5,1.5,1.5s1.5-0.673,1.5-1.5c0-0.096,0.021-0.187,0.028-0.281V12.567
    c0-1.933,1.567-3.5,3.5-3.5s3.5,1.567,3.5,3.5v22.519c3.16-2.515,7.157-4.019,11.5-4.019c1.933,0,3.5,1.567,3.5,3.5
    s-1.567,3.5-3.5,3.5c-6.341,0-11.5,5.159-11.5,11.5c0,0.193-0.027,0.38-0.057,0.565c-0.302,9.939-8.461,17.935-18.471,17.935
    c-10.201,0-18.5-8.299-18.5-18.5v-30c0-1.933,1.567-3.5,3.5-3.5s3.5,1.567,3.5,3.5v13.771c0,0.827,0.673,1.5,1.5,1.5
    s1.5-0.673,1.5-1.5V8.433c0-1.933,1.567-3.5,3.5-3.5s3.5,1.567,3.5,3.5v21.905c0,0.827,0.673,1.5,1.5,1.5
    S20.472,31.166,20.472,30.338z"/>
</svg>
