<?xml version="1.0" encoding="utf-8"?>
<!-- Generator: Adobe Illustrator 17.0.0, SVG Export Plug-In . SVG Version: 6.00 Build 0)  -->
<!DOCTYPE svg PUBLIC "-//W3C//DTD SVG 1.1//EN" "http://www.w3.org/Graphics/SVG/1.1/DTD/svg11.dtd">
<svg version="1.1" xmlns="http://www.w3.org/2000/svg" xmlns:xlink="http://www.w3.org/1999/xlink" x="0px" y="0px" width="105px"
	 height="56px" viewBox="0 0 105 56" enable-background="new 0 0 105 56" xml:space="preserve">
<g id="Isolation_Mode">
	<g>
		<polygon fill="none" stroke="#FFFFFF" stroke-width="2" stroke-miterlimit="10" points="1.5,2.875 52.5,53.875 103.5,2.875 
			103.5,31.375 1.5,31.375 		"/>
		<circle fill="none" stroke="#FFFFFF" stroke-width="2" stroke-miterlimit="10" cx="75" cy="31.375" r="21.125"/>
		<circle fill="none" stroke="#FFFFFF" stroke-width="2" stroke-miterlimit="10" cx="30" cy="31.375" r="21.125"/>
		<circle fill="none" stroke="#FFFFFF" stroke-width="2" stroke-miterlimit="10" cx="30" cy="31.375" r="9.75"/>
		<circle fill="none" stroke="#FFFFFF" stroke-width="2" stroke-miterlimit="10" cx="75" cy="31.375" r="9.75"/>
	</g>
</g>
<g id="Layer_1" display="none">
	<path display="inline" fill="none" stroke="#010101" stroke-miterlimit="10" d="M83.971,23.152V-1.753c0-1.933-1.567-3.5-3.5-3.5
		s-3.5,1.567-3.5,3.5v26.905c0,0.827-0.673,1.5-1.5,1.5s-1.5-0.673-1.5-1.5c0-0.096-0.021-0.187-0.028-0.281V5.381
		c0-1.933-1.567-3.5-3.5-3.5s-3.5,1.567-3.5,3.5v22.519c-3.16-2.515-7.157-4.019-11.5-4.019c-1.933,0-3.5,1.567-3.5,3.5
		s1.567,3.5,3.5,3.5c6.341,0,11.5,5.159,11.5,11.5c0,0.193,0.027,0.38,0.057,0.565c0.302,9.939,8.461,17.935,18.471,17.935
		c10.201,0,18.5-8.299,18.5-18.5v-30c0-1.933-1.567-3.5-3.5-3.5s-3.5,1.567-3.5,3.5v13.771c0,0.827-0.673,1.5-1.5,1.5
		s-1.5-0.673-1.5-1.5V1.247c0-1.933-1.567-3.5-3.5-3.5s-3.5,1.567-3.5,3.5v21.905c0,0.827-0.673,1.5-1.5,1.5
		S83.971,23.979,83.971,23.152z"/>
	<path display="inline" fill="none" stroke="#010101" stroke-miterlimit="10" d="M19.914,23.152V-1.753c0-1.933,1.567-3.5,3.5-3.5
		s3.5,1.567,3.5,3.5v26.905c0,0.827,0.673,1.5,1.5,1.5s1.5-0.673,1.5-1.5c0-0.096,0.021-0.187,0.028-0.281V5.381
		c0-1.933,1.567-3.5,3.5-3.5s3.5,1.567,3.5,3.5v22.519c3.16-2.515,7.157-4.019,11.5-4.019c1.933,0,3.5,1.567,3.5,3.5
		s-1.567,3.5-3.5,3.5c-6.341,0-11.5,5.159-11.5,11.5c0,0.193-0.027,0.38-0.057,0.565c-0.302,9.939-8.461,17.935-18.471,17.935
		c-10.201,0-18.5-8.299-18.5-18.5v-30c0-1.933,1.567-3.5,3.5-3.5s3.5,1.567,3.5,3.5v13.771c0,0.827,0.673,1.5,1.5,1.5
		s1.5-0.673,1.5-1.5V1.247c0-1.933,1.567-3.5,3.5-3.5s3.5,1.567,3.5,3.5v21.905c0,0.827,0.673,1.5,1.5,1.5
		S19.914,23.979,19.914,23.152z"/>
</g>
</svg>
