<svg xmlns="http://www.w3.org/2000/svg" id="socialIcon" viewBox="-4.4 15.6 70.8 70.8">
  <style>
    .st0{fill:none;stroke:#000000;stroke-miterlimit:10;} .st1{fill:#020201;} .st2{display:none;}
  </style>
  <circle id="circle" cx="31" cy="51" r="34.9" class="st0"/>
  <path id="facebook" d="M27.6 31.6c1.7-1.6 4.1-2.1 6.3-2.2h7.2V37h-4.6c-1-.1-2 .7-2.2 1.7v5.1h6.8c-.2 2.4-.5 4.9-.8 7.3h-6v21.6h-8.9c-.1-7.2 0-14.4 0-21.6h-4.3v-7.3h4.3v-7.1c.1-1.9.8-3.8 2.2-5.1z" class="st1"/>
  <path id="thumblr" d="M16.8 47.1V41c1.7-.6 3.2-1.4 4.3-2.4 1.2-.9 2.1-2.2 2.9-3.7.7-1.5 1.2-3.3 1.5-5.4h6.1v10.8h10.1V47H31.6v11c0 2.5.1 4.1.4 4.8.3.7.7 1.2 1.5 1.7 1 .6 2.1.9 3.3.9 2.2 0 4.4-.7 6.5-2.1V70c-1.8.9-3.5 1.5-5 1.8-1.5.3-3.1.5-4.8.5-1.9 0-3.7-.2-5.2-.7-1.6-.5-2.8-1.3-3.8-2.1-1-.9-1.8-1.9-2.2-2.9-.4-1-.6-2.5-.6-4.5v-15h-4.9z"/>
  <path id="pinterest" d="M14.3 44.9c0-1.8.4-3.6 1.1-5.4s1.9-3.4 3.3-5 3.3-2.8 5.6-3.7 4.9-1.4 7.7-1.4c4.6 0 8.3 1.4 11.3 4.2 2.9 2.8 4.4 6.1 4.4 10 0 4.9-1.2 9-3.7 12.2s-5.7 4.8-9.6 4.8c-1.3 0-2.5-.3-3.6-.9s-1.9-1.3-2.4-2.2l-1.7 6.8c-.1.5-.3 1.1-.6 1.7-.2.6-.5 1.1-.8 1.6-.3.5-.5 1-.8 1.5-.3.5-.5.9-.8 1.3-.3.4-.5.7-.7 1-.2.3-.4.5-.6.7l-.3.3c-.1.1-.2.2-.3.1s-.2-.1-.3-.3c0 0 0-.2-.1-.6 0-.4-.1-.8-.1-1.2 0-.4-.1-1-.1-1.6s-.1-1.3 0-1.9.1-1.3.1-2l.3-2.1c.3-1.4 1.4-5.8 3.2-13.5-.2-.5-.4-1-.6-1.7-.2-.6-.2-1.1-.2-1.5v-.6c0-1.8.5-3.4 1.4-4.6.9-1.2 2.1-1.8 3.4-1.8 1.1 0 1.9.4 2.5 1.1s.9 1.6.9 2.7c0 .7-.1 1.5-.4 2.4s-.6 2.1-1 3.3-.7 2.3-.9 3c-.3 1.3 0 2.4.8 3.4.8.9 1.8 1.4 3.2 1.4 2.3 0 4.1-1.3 5.6-3.9 1.5-2.6 2.2-5.7 2.2-9.3 0-2.8-.9-5.1-2.7-6.8s-4.3-2.7-7.6-2.7c-3.6 0-6.6 1.2-8.8 3.5s-3.4 5.1-3.4 8.4c0 1.9.5 3.5 1.6 4.9.4.4.5.9.3 1.4-.1.1-.1.5-.3 1s-.2.8-.3 1c-.1.3-.2.5-.4.6-.2.1-.5.1-.8 0-1.7-.7-3-1.9-3.8-3.6-.8-1.8-1.2-3.7-1.2-6z"/>
  <path id="instagram" d="M47.6 65.8V47.7h-3.8c.4 1.2.6 2.4.6 3.7 0 2.4-.6 4.5-1.8 6.5s-2.8 3.6-4.9 4.7-4.3 1.7-6.7 1.7c-3.7 0-6.8-1.3-9.4-3.8-2.6-2.5-3.9-5.6-3.9-9.2 0-1.3.2-2.5.6-3.7h-3.9v18.1c0 .5.2.9.5 1.2.3.3.7.5 1.2.5H46c.5 0 .9-.2 1.2-.5.3-.2.4-.6.4-1.1zm-7.9-14.9c0-2.3-.8-4.3-2.5-5.9s-3.7-2.4-6.1-2.4c-2.4 0-4.4.8-6.1 2.4-1.7 1.6-2.5 3.6-2.5 5.9s.8 4.3 2.5 5.9 3.7 2.4 6.1 2.4c2.4 0 4.4-.8 6.1-2.4 1.6-1.6 2.5-3.6 2.5-5.9zm7.9-10.1v-4.6c0-.5-.2-1-.6-1.4s-.8-.6-1.4-.6h-4.9c-.5 0-1 .2-1.4.6s-.6.8-.6 1.4v4.6c0 .5.2 1 .6 1.4s.8.6 1.4.6h4.9c.5 0 1-.2 1.4-.6.4-.4.6-.8.6-1.4zm4.9-5.8v32c0 1.5-.5 2.8-1.6 3.9s-2.4 1.6-3.9 1.6H15c-1.5 0-2.8-.5-3.9-1.6S9.5 68.5 9.5 67V35c0-1.5.5-2.8 1.6-3.9s2.4-1.6 3.9-1.6h32c1.5 0 2.8.5 3.9 1.6s1.6 2.4 1.6 3.9z"/>
  <path id="twitter" d="M52.5 37.6c-1.6.7-3.3 1.2-5.1 1.4 1.8-1.1 3.2-2.8 3.9-4.9-1.7 1-3.6 1.7-5.6 2.1-1.6-1.7-3.9-2.8-6.5-2.8-4.9 0-8.8 4-8.8 8.8 0 .7.1 1.4.2 2-7.3-.4-13.9-3.9-18.2-9.2-.8 1.3-1.2 2.8-1.2 4.4 0 3.1 1.6 5.8 3.9 7.4-1.4 0-2.8-.4-4-1.1v.1c0 4.3 3 7.9 7.1 8.7-.7.2-1.5.3-2.3.3-.6 0-1.1-.1-1.7-.2 1.1 3.5 4.4 6.1 8.3 6.1-3 2.4-6.8 3.8-11 3.8-.7 0-1.4 0-2.1-.1 3.9 2.5 8.6 4 13.6 4 16.3 0 25.2-13.5 25.2-25.2v-1.1c1.7-1.1 3.2-2.7 4.3-4.5z"/>
  <path id="google" d="M51.5 49.3H31.9V55h13.9c-.7 8.2-7.5 11.6-13.9 11.6-8.2 0-15.3-6.4-15.3-15.5 0-8.7 6.8-15.6 15.3-15.6 6.6 0 10.4 4.1 10.4 4.1l4-4.3s-5.3-5.8-14.7-5.8c-12.1 0-21.5 10.2-21.5 21.3 0 10.9 8.8 21.4 21.8 21.4 11.4 0 19.7-7.8 19.7-19.4.3-2.2-.1-3.5-.1-3.5z" class="st2"/>
  <g id="linkedIN">
    <path id="XMLID_3_" d="M9.6 39v-7.2h7.8V39H9.6zm0 33.4V43h7.8v29.5H9.6z"/>
    <path id="XMLID_6_" d="M52.2 72.4h-7.8v-15c0-3.2-.2-5.2-.5-6.2-.3-.9-.9-1.7-1.6-2.2-.7-.5-1.7-.8-2.7-.8-1.3 0-2.6.4-3.6 1.1-1.1.7-1.8 1.7-2.2 2.9-.4 1.2-.6 3.5-.6 6.8v13.3h-7.8V43h7.2v4.3c2.6-3.3 5.8-5 9.7-5 1.7 0 3.3.3 4.7.9s2.5 1.4 3.2 2.4c.7 1 1.2 2.1 1.5 3.3.3 1.2.4 3 .4 5.2v18.3z"/>
  </g>
</svg>
